<?xml version="1.0" standalone="no"?><!DOCTYPE svg PUBLIC "-//W3C//DTD SVG 1.1//EN" "http://www.w3.org/Graphics/SVG/1.1/DTD/svg11.dtd"><svg t="1751857701068" class="icon" viewBox="0 0 1024 1024" version="1.1" xmlns="http://www.w3.org/2000/svg" p-id="24794" xmlns:xlink="http://www.w3.org/1999/xlink" width="64" height="64"><path d="M227.956 316.474h162.87v618.91h-162.87zM715.376 414.278a67.022 67.022 0 0 0-13.36 40.224c0 18.086 6.998 34.866 19.706 47.558 12.708 12.708 29.65 19.706 47.558 19.706a67.41 67.41 0 0 0 47.556-19.532c23.954-23.954 26.07-61.57 6.188-87.956h-107.648zM683.932 668.192v267.272h162.87V671.116c-24.588 8.796-50.8 13.362-77.522 13.362a231.864 231.864 0 0 1-85.348-16.286zM539.48 454.502c0-61.394 23.764-119.05 67.248-162.536 3.912-3.914 7.826-7.668 12.056-11.086V88.536h-162.87v846.928h162.87v-307.18c-4.23-3.42-8.144-7.158-12.056-11.07-43.486-43.484-67.248-101.142-67.248-162.712zM0 609.564h162.872v325.742H0z" fill="#3655b3" p-id="24795"></path><path d="M1009.244 638.288l-87.878-85.602c18.744-28.964 28.884-62.732 28.884-98.12 0-48.416-18.816-93.874-52.966-128.024-34.148-34.148-79.606-52.966-128.022-52.966s-93.89 18.816-128.024 52.966c-34.164 34.148-52.964 79.606-52.964 128.024 0 48.416 18.8 93.888 52.95 128.038 34.148 34.148 79.62 52.964 128.038 52.964 35.396 0 69.164-10.148 98.144-28.916l85.564 87.862c15.952 19.228 39.492 20.374 57.688 2.18 18.212-18.18 17.814-42.5-1.414-58.406z m-239.98-86.588c-25.942 0-50.34-10.116-68.696-28.456-18.34-18.338-28.438-42.738-28.438-68.678 0-25.942 10.1-50.326 28.438-68.664 18.356-18.338 42.738-28.454 68.696-28.454 25.926 0 50.324 10.116 68.664 28.454 37.87 37.87 37.87 99.488 0 137.358-18.34 18.34-42.722 28.44-68.664 28.44z" fill="#3655b3" p-id="24796"></path></svg>