<?xml version="1.0" standalone="no"?><!DOCTYPE svg PUBLIC "-//W3C//DTD SVG 1.1//EN" "http://www.w3.org/Graphics/SVG/1.1/DTD/svg11.dtd"><svg t="1751856852979" class="icon" viewBox="0 0 1097 1024" version="1.1" xmlns="http://www.w3.org/2000/svg" p-id="14165" xmlns:xlink="http://www.w3.org/1999/xlink" width="68.5625" height="64"><path d="M750.933333 153.6c-31.695238 0-63.390476 2.438095-92.647619 4.87619 2.438095-4.87619 2.438095-9.752381 2.438096-14.628571C660.72381 73.142857 519.314286 14.628571 346.209524 14.628571S31.695238 73.142857 31.695238 143.847619s141.409524 129.219048 314.514286 129.219048c31.695238 0 63.390476-2.438095 92.647619-4.876191-2.438095 4.87619-2.438095 9.752381-2.438095 14.628572 0 70.704762 141.409524 129.219048 314.514285 129.219047s314.514286-58.514286 314.514286-129.219047c2.438095-73.142857-138.971429-129.219048-314.514286-129.219048z" fill="#3655b3" p-id="14166"></path><path d="M750.933333 138.971429c-19.504762 0-41.447619 0-60.952381 2.438095C668.038095 48.761905 502.247619 0 346.209524 0 177.980952 0 0 56.07619 0 160.914286v565.638095c0 104.838095 177.980952 160.914286 346.209524 160.914286 19.504762 0 41.447619 0 60.952381-2.438096 19.504762 90.209524 185.295238 138.971429 343.771428 138.971429 168.228571 0 346.209524-56.07619 346.209524-160.914286V297.447619c0-102.4-177.980952-158.47619-346.209524-158.47619zM346.209524 60.952381c158.47619 0 263.314286 48.761905 282.819047 87.771429-97.52381 17.066667-180.419048 51.2-209.67619 104.838095-21.942857 2.438095-46.32381 4.87619-73.142857 4.87619-173.104762 0-285.257143-58.514286-285.257143-97.523809S170.666667 60.952381 346.209524 60.952381zM60.952381 253.561905c65.828571 43.885714 177.980952 65.828571 285.257143 65.828571 19.504762 0 39.009524 0 60.952381-2.438095v131.657143c-19.504762 2.438095-39.009524 2.438095-60.952381 2.438095-173.104762 0-285.257143-58.514286-285.257143-97.523809v-99.961905z m0 192.609524C126.780952 490.057143 238.933333 512 346.209524 512c19.504762 0 39.009524 0 60.952381-2.438095V633.904762c-19.504762 2.438095-39.009524 2.438095-60.952381 2.438095-173.104762 0-285.257143-58.514286-285.257143-97.523809v-92.647619z m0 280.380952V633.904762c65.828571 43.885714 177.980952 65.828571 285.257143 65.828571 19.504762 0 39.009524 0 60.952381-2.438095v124.342857c-19.504762 2.438095-39.009524 2.438095-60.952381 2.438095-175.542857 0-285.257143-58.514286-285.257143-97.523809z m975.238095 136.533333c0 39.009524-112.152381 97.52381-285.257143 97.52381s-285.257143-58.514286-285.257143-97.52381v-92.647619c65.828571 43.885714 177.980952 65.828571 285.257143 65.828572s219.428571-21.942857 285.257143-65.828572v92.647619z m0-185.295238c0 39.009524-112.152381 97.52381-285.257143 97.52381s-285.257143-58.514286-285.257143-97.52381V585.142857c65.828571 43.885714 177.980952 65.828571 285.257143 65.828572s219.428571-21.942857 285.257143-65.828572v92.647619z m0-185.295238c0 39.009524-112.152381 97.52381-285.257143 97.52381s-285.257143-58.514286-285.257143-97.52381v-99.961905c65.828571 43.885714 177.980952 65.828571 285.257143 65.828572s219.428571-21.942857 285.257143-65.828572v99.961905z m-285.257143-97.523809c-173.104762 0-285.257143-58.514286-285.257143-97.52381s112.152381-97.52381 285.257143-97.523809 285.257143 58.514286 285.257143 97.523809c0 41.447619-112.152381 97.52381-285.257143 97.52381z" fill="#3655b3" p-id="14167"></path></svg>