<?xml version="1.0" standalone="no"?><!DOCTYPE svg PUBLIC "-//W3C//DTD SVG 1.1//EN" "http://www.w3.org/Graphics/SVG/1.1/DTD/svg11.dtd"><svg t="1751848707672" class="icon" viewBox="0 0 1024 1024" version="1.1" xmlns="http://www.w3.org/2000/svg" p-id="1542" xmlns:xlink="http://www.w3.org/1999/xlink" width="64" height="64"><path d="M679.253333 583.68c23.893333-34.133333 37.546667-75.093333 37.546667-119.466667 0-112.64-92.16-204.8-204.8-204.8s-204.8 92.16-204.8 204.8 92.16 204.8 204.8 204.8c44.373333 0 85.333333-13.653333 119.466667-37.546666l61.44 61.44c6.826667 6.826667 17.066667 10.24 23.893333 10.24s17.066667-3.413333 23.893333-10.24c13.653333-13.653333 13.653333-34.133333 0-47.786667l-61.44-61.44zM375.466667 464.213333c0-75.093333 61.44-136.533333 136.533333-136.533333s136.533333 61.44 136.533333 136.533333-61.44 136.533333-136.533333 136.533334-136.533333-61.44-136.533333-136.533334z" fill="#3655b3" p-id="1543"></path><path d="M750.933333 34.133333H273.066667C177.493333 34.133333 102.4 109.226667 102.4 204.8v682.666667c0 37.546667 17.066667 68.266667 51.2 88.746666 30.72 17.066667 68.266667 20.48 102.4 3.413334l242.346667-133.12c10.24-6.826667 23.893333-6.826667 34.133333 0l242.346667 133.12c10.24 6.826667 27.306667 10.24 44.373333 10.24s37.546667-3.413333 51.2-13.653334c34.133333-20.48 51.2-51.2 51.2-88.746666V204.8c0-95.573333-75.093333-170.666667-170.666667-170.666667z m102.4 853.333334c0 17.066667-10.24 27.306667-17.066666 30.72-3.413333 3.413333-17.066667 10.24-34.133334 0L559.786667 785.066667c-30.72-17.066667-68.266667-17.066667-98.986667 0l-242.346667 133.12c-17.066667 6.826667-27.306667 3.413333-34.133333 0-3.413333-3.413333-13.653333-13.653333-13.653333-30.72V204.8c0-58.026667 44.373333-102.4 102.4-102.4h477.866666c58.026667 0 102.4 44.373333 102.4 102.4v682.666667z" fill="#3655b3" p-id="1544"></path></svg>