<?xml version="1.0" standalone="no"?><!DOCTYPE svg PUBLIC "-//W3C//DTD SVG 1.1//EN" "http://www.w3.org/Graphics/SVG/1.1/DTD/svg11.dtd"><svg t="1751873822523" class="icon" viewBox="0 0 1024 1024" version="1.1" xmlns="http://www.w3.org/2000/svg" p-id="2500" xmlns:xlink="http://www.w3.org/1999/xlink" width="64" height="64"><path d="M875.310509 1023.935118H148.241085A148.303241 148.303241 0 0 1 0.38531 875.248334V508.645278l152.905756-171.060118A142.550098 142.550098 0 0 1 273.979221 269.570226v74.343392c-23.587886 0.191771-45.385906 12.592991-57.787125 32.728991L85.403978 508.645278h267.393301l78.881983 84.187659h157.700041l78.881983-84.187659h267.393301l-130.468498-132.322288a68.014935 68.014935 0 0 0-58.042821-32.409372V269.570226a142.422251 142.422251 0 0 1 120.752079 67.375696L1023.166284 508.645278v366.603056a148.303241 148.303241 0 0 1-147.855775 148.686784z m73.895926-441.010372h-253.841453l-78.818059 84.251583H404.575566L325.693583 582.924746H74.345159v292.323588a74.151621 74.151621 0 0 0 73.895926 74.343392h727.069424a74.151621 74.151621 0 0 0 73.895926-74.343392V582.924746z m-474.378601 201.935319H195.097238a37.07581 37.07581 0 1 1 0-74.343392h279.730596a37.07581 37.07581 0 0 1 36.947963 37.203658 37.07581 37.07581 0 0 1-36.947963 37.139734z m-279.730596 45.577677h193.433452a37.07581 37.07581 0 1 1 0 74.343392H195.097238a37.07581 37.07581 0 0 1 0-74.343392z m329.910788-404.445951a18.921448 18.921448 0 0 1-22.30941 0L244.190725 236.905158c-14.830324-10.803124-7.223391-34.327086 11.058819-34.327086H335.985317a18.921448 18.921448 0 0 0 18.921448-18.985372V19.37243c0-10.483505 8.437943-18.985372 18.857524-18.985372h277.685035a18.857524 18.857524 0 0 1 18.857524 18.985372v164.22027a19.177143 19.177143 0 0 0 5.561371 13.424 18.7936 18.7936 0 0 0 13.360077 5.561372h81.119316c18.28221 0 25.953067 23.460039 11.186667 34.327086L525.008026 425.991791z" fill="#3B9DE8" p-id="2501"></path></svg>