<?xml version="1.0" standalone="no"?><!DOCTYPE svg PUBLIC "-//W3C//DTD SVG 1.1//EN" "http://www.w3.org/Graphics/SVG/1.1/DTD/svg11.dtd"><svg t="1751856340632" class="icon" viewBox="0 0 1024 1024" version="1.1" xmlns="http://www.w3.org/2000/svg" p-id="4416" xmlns:xlink="http://www.w3.org/1999/xlink" width="64" height="64"><path d="M881.664 922.624h-737.28c-33.792 0-61.44-27.648-61.44-61.44v-696.32c0-33.792 27.648-61.44 61.44-61.44h289.792c24.576 0 46.08 14.336 56.32 36.864l50.176 114.688c3.072 7.168 10.24 12.288 18.432 12.288H880.64c33.792 0 61.44 27.648 61.44 61.44v532.48c1.024 33.792-26.624 61.44-60.416 61.44z m-737.28-778.24c-11.264 0-20.48 9.216-20.48 20.48v696.32c0 11.264 9.216 20.48 20.48 20.48h737.28c11.264 0 20.48-9.216 20.48-20.48v-532.48c0-11.264-9.216-20.48-20.48-20.48H559.104c-24.576 0-46.08-14.336-56.32-36.864l-50.176-114.688c-3.072-7.168-10.24-12.288-18.432-12.288H144.384z" fill="#3655b3" p-id="4417"></path><path d="M860.16 296.96c-11.264 0-20.48-9.216-20.48-20.48v-60.416c0-11.264-9.216-20.48-20.48-20.48H494.592c-11.264 0-20.48-9.216-20.48-20.48s9.216-20.48 20.48-20.48H819.2c33.792 0 61.44 27.648 61.44 61.44V276.48c0 11.264-9.216 20.48-20.48 20.48zM788.48 512H235.52c-11.264 0-20.48-9.216-20.48-20.48V389.12c0-11.264 9.216-20.48 20.48-20.48h552.96c11.264 0 20.48 9.216 20.48 20.48v102.4c0 11.264-9.216 20.48-20.48 20.48z m-532.48-40.96h512v-61.44H256v61.44zM481.28 665.6H235.52c-11.264 0-20.48-9.216-20.48-20.48v-71.68c0-11.264 9.216-20.48 20.48-20.48h245.76c11.264 0 20.48 9.216 20.48 20.48v71.68c0 11.264-9.216 20.48-20.48 20.48z m-225.28-40.96h204.8v-30.72H256v30.72zM481.28 819.2H235.52c-11.264 0-20.48-9.216-20.48-20.48v-71.68c0-11.264 9.216-20.48 20.48-20.48h245.76c11.264 0 20.48 9.216 20.48 20.48v71.68c0 11.264-9.216 20.48-20.48 20.48z m-225.28-40.96h204.8v-30.72H256v30.72z" fill="#3655b3" p-id="4418"></path><path d="M788.48 819.2H563.2c-11.264 0-20.48-9.216-20.48-20.48V573.44c0-11.264 9.216-20.48 20.48-20.48h225.28c11.264 0 20.48 9.216 20.48 20.48v225.28c0 11.264-9.216 20.48-20.48 20.48z m-204.8-40.96h184.32V593.92H583.68v184.32z" fill="#3655b3" p-id="4419"></path></svg>