<?xml version="1.0" standalone="no"?><!DOCTYPE svg PUBLIC "-//W3C//DTD SVG 1.1//EN" "http://www.w3.org/Graphics/SVG/1.1/DTD/svg11.dtd"><svg t="1751858242608" class="icon" viewBox="0 0 1024 1024" version="1.1" xmlns="http://www.w3.org/2000/svg" p-id="31234" xmlns:xlink="http://www.w3.org/1999/xlink" width="64" height="64"><path d="M431.362 606.315H256.885c-13.316 0-23.832 10.496-23.832 23.831 0 11.206 7.714 20.312 18.215 23.132 0.705 0 1.41 0 2.092 0.686h178.69c13.335 0 23.836-10.496 23.836-23.818 0-13.335-11.206-23.831-24.524-23.831zM431.362 744.194H256.885c-13.316 0-23.832 10.496-23.832 23.831 0 11.206 7.714 20.312 18.215 23.132 0.705 0 1.41 0 2.092 0.686h178.69c13.335 0 23.836-10.496 23.836-23.818 0-13.335-11.206-23.831-24.524-23.831zM256.161 468.78h-0.705c-13.316 0-23.832 10.515-23.832 23.836 0 13.317 10.515 23.833 23.832 23.833h412.076c1.391 0 3.506 0 4.897-0.705 11.202-2.097 20.33-11.907 20.33-23.833 0-13.321-10.52-23.836-23.836-23.836h-2.097l-410.665 0.705c0.706 0 0 0 0 0zM874.757 919.469l-73.579-73.579a169.866 169.866 0 0 0 31.532-101.604c-2.097-87.601-73.578-159.769-161.161-162.59-96.705-2.801-175.183 75.676-171.695 172.4 2.797 87.605 74.966 159.069 162.571 161.161 37.854 0.705 72.893-10.515 101.604-31.527l73.579 73.579c5.355 4.912 13.578 4.912 18.934 0l18.92-18.92c4.898-4.899 4.898-13.318-0.705-18.92z m-208.83-51.882a118.965 118.965 0 0 1-84.257-34.851 118.97 118.97 0 0 1-34.852-84.257c0-68.685 58.166-123.345 127.533-118.446 58.871 4.208 106.52 51.857 110.023 110.023 4.897 69.366-50.448 127.531-118.447 127.531z" fill="#B8C5D8" p-id="31235"></path><path d="M878.976 318.427c0.705-8.424-3.502-18.234-11.202-25.929l-1.391-1.391-133.837-130.334c-0.705 0-84.804-82.003-85.509-82.707a39.85 39.85 0 0 0-5.599-4.894c-1.391-1.391-2.801-2.097-4.897-3.507-2.821-1.409-8.419-4.211-14.023-4.211H191.505c-23.131 0-42.752 16.804-47.65 38.54-0.705 2.802-0.705 6.308-0.705 9.796v799.571c0 23.131 16.823 42.756 38.54 46.945 2.821 0.686 6.309 0.686 9.815 0.686h374.967c13.335 0 23.836-10.337 23.836-23.457 0-12.919-10.851-23.11-23.882-23.439v-0.031H190.8V113.809h410.665V296c0 23.15 16.805 42.775 38.54 47.669 2.821 0.705 9.109 0.705 9.109 0.705h181.51V529.371c0.001 13.315 10.668 23.829 24.22 23.829 11.389 0 20.644-7.714 23.51-18.215 0.266-0.809 0.516-1.307 0.697-2.092l-0.075-214.466zM649.82 295.981V148.119l154.872 147.862H649.82z" fill="#B8C5D8" p-id="31236"></path></svg>