<?xml version="1.0" standalone="no"?><!DOCTYPE svg PUBLIC "-//W3C//DTD SVG 1.1//EN" "http://www.w3.org/Graphics/SVG/1.1/DTD/svg11.dtd"><svg t="1751857792588" class="icon" viewBox="0 0 1024 1024" version="1.1" xmlns="http://www.w3.org/2000/svg" p-id="25934" xmlns:xlink="http://www.w3.org/1999/xlink" width="64" height="64"><path d="M922.112 563.712c-21.504-16.384-46.08-29.184-71.68-38.4l34.816-17.92-124.416-58.368-216.064 104.448c-18.944 6.656-39.936 6.656-58.88 0L263.168 449.536 138.752 507.904l373.248 188.928 11.776-6.144c-7.168 23.04-11.264 47.104-11.776 71.168-13.312 0-19.456 0-32.768-6.656l-216.064-110.592-124.416 58.88 373.248 188.928 25.6-12.288c9.216 18.432 20.48 35.84 33.28 51.712l-26.112 12.8c-6.656 6.656-19.456 6.656-32.768 6.656s-19.456 0-32.768-6.656l-373.248-182.272c-26.112-12.8-32.768-32.768-32.768-58.368 0-26.112 13.312-45.568 39.424-58.88l78.848-38.912-78.848-39.424c-26.112-12.8-39.424-32.768-39.424-58.88s13.312-45.568 39.424-58.368l78.848-38.912L112.64 371.2C79.872 358.4 66.56 318.976 79.872 286.72c6.656-13.312 19.456-26.112 26.112-26.112l373.248-182.272c19.456-6.656 39.424-6.656 58.88 0L911.36 260.608c32.768 12.8 46.08 52.224 26.112 84.48-6.656 12.8-19.456 26.112-26.112 26.112l-78.848 38.912 72.192 32.768c32.768 12.8 46.08 32.768 46.08 65.024 0 20.992-8.192 41.472-28.672 55.808zM138.752 312.32L512 501.248 885.248 312.32 512 130.048 138.752 312.32z" p-id="25935"></path><path d="M939.008 893.952l-62.976-60.416c-9.216-8.704-25.088-6.656-33.28-6.144 21.504-25.088 34.816-58.368 34.816-94.208 0-79.872-65.024-144.896-144.896-144.896s-144.896 65.024-144.896 144.896c0 79.872 65.024 144.896 144.896 144.896 35.84 0 68.608-12.8 94.208-34.816-0.512 8.192-2.048 24.064 6.144 33.28l60.416 62.976c13.312 14.848 35.328 15.872 48.128 2.56 13.312-13.312 12.288-35.328-2.56-48.128zM732.16 829.44c-53.248 0-96.768-43.008-96.768-96.768 0-53.248 43.008-96.768 96.768-96.768 53.248 0 96.768 43.008 96.768 96.768 0 53.248-43.008 96.768-96.768 96.768z" p-id="25936"></path></svg>