<?xml version="1.0" standalone="no"?><!DOCTYPE svg PUBLIC "-//W3C//DTD SVG 1.1//EN" "http://www.w3.org/Graphics/SVG/1.1/DTD/svg11.dtd"><svg t="1751859165739" class="icon" viewBox="0 0 1024 1024" version="1.1" xmlns="http://www.w3.org/2000/svg" p-id="6272" xmlns:xlink="http://www.w3.org/1999/xlink" width="64" height="64"><path d="M941.482667 441.770667l-382.293334-346.453334-25.6-23.125333a33.536 33.536 0 0 0-43.946666 0L81.749333 441.770667a54.613333 54.613333 0 0 0-18.688 41.301333c0.426667 31.573333 29.44 56.832 64.256 56.832h42.069334V832h684.629333V539.904h42.837333c16.896 0 32.938667-5.973333 44.8-16.896a54.442667 54.442667 0 0 0 18.517334-40.618667 55.04 55.04 0 0 0-18.688-40.618666zM566.954667 767.402667h-110.933334V584.362667h110.933334v183.04zM782.592 475.306667v292.096H630.272V562.858667c0-19.797333-17.664-35.84-39.594667-35.84H432.384c-21.930667 0-39.594667 16.042667-39.594667 35.84v204.544H240.469333V475.306667H145.493333l366.08-331.605334 22.869334 20.650667 343.210666 310.954667H782.592z" p-id="6273"></path></svg>