<?xml version="1.0" standalone="no"?><!DOCTYPE svg PUBLIC "-//W3C//DTD SVG 1.1//EN" "http://www.w3.org/Graphics/SVG/1.1/DTD/svg11.dtd"><svg t="1751858816286" class="icon" viewBox="0 0 1024 1024" version="1.1" xmlns="http://www.w3.org/2000/svg" p-id="2364" xmlns:xlink="http://www.w3.org/1999/xlink" width="64" height="64"><path d="M943.157895 1024H80.842105a80.842105 80.842105 0 0 1-80.842105-80.842105V80.842105a80.842105 80.842105 0 0 1 80.842105-80.842105h862.31579a80.842105 80.842105 0 0 1 80.842105 80.842105v862.31579a80.842105 80.842105 0 0 1-80.842105 80.842105zM80.842105 53.894737a26.947368 26.947368 0 0 0-26.947368 26.947368v862.31579a26.947368 26.947368 0 0 0 26.947368 26.947368h862.31579a26.947368 26.947368 0 0 0 26.947368-26.947368V80.842105a26.947368 26.947368 0 0 0-26.947368-26.947368z" fill="#6F9FE5" p-id="2365"></path><path d="M215.578947 449.212632a80.842105 80.842105 0 0 1-64.673684-32.336843L113.178947 366.484211a26.947368 26.947368 0 1 1 43.11579-32.336843l37.726316 50.391579a26.947368 26.947368 0 0 0 43.115789 0l118.568421-158.181052a26.947368 26.947368 0 1 1 43.11579 32.336842l-118.568421 158.181052a80.842105 80.842105 0 0 1-64.673685 32.336843zM242.526316 889.263158a134.736842 134.736842 0 1 1 134.736842-134.736842 134.736842 134.736842 0 0 1-134.736842 134.736842z m0-215.578947a80.842105 80.842105 0 1 0 80.842105 80.842105 80.842105 80.842105 0 0 0-80.842105-80.842105zM889.263158 323.368421H538.947368a26.947368 26.947368 0 0 1 0-53.894737h350.31579a26.947368 26.947368 0 0 1 0 53.894737zM889.263158 565.894737H538.947368a26.947368 26.947368 0 0 1 0-53.894737h350.31579a26.947368 26.947368 0 0 1 0 53.894737zM889.263158 808.421053H538.947368a26.947368 26.947368 0 0 1 0-53.894737h350.31579a26.947368 26.947368 0 0 1 0 53.894737z" fill="#6F9FE5" p-id="2366"></path></svg>