<?xml version="1.0" standalone="no"?><!DOCTYPE svg PUBLIC "-//W3C//DTD SVG 1.1//EN" "http://www.w3.org/Graphics/SVG/1.1/DTD/svg11.dtd"><svg t="1751859503542" class="icon" viewBox="0 0 1024 1024" version="1.1" xmlns="http://www.w3.org/2000/svg" p-id="8327" xmlns:xlink="http://www.w3.org/1999/xlink" width="64" height="64"><path d="M739.555556 273.066667c-17.066667 0-34.133333-5.688889-56.888889-5.688889V56.888889H56.888889v796.444444h256c5.688889 22.755556 17.066667 39.822222 34.133333 56.888889H56.888889c-34.133333 0-56.888889-22.755556-56.888889-56.888889V56.888889c0-34.133333 22.755556-56.888889 56.888889-56.888889h625.777778c34.133333 0 56.888889 22.755556 56.888889 56.888889v216.177778zM170.666667 227.555556c-17.066667 0-28.444444-11.377778-28.444445-28.444445S153.6 170.666667 170.666667 170.666667h398.222222c17.066667 0 28.444444 11.377778 28.444444 28.444444s-11.377778 28.444444-28.444444 28.444445H170.666667z m0 170.666666c-17.066667 0-28.444444-11.377778-28.444445-28.444444S153.6 341.333333 170.666667 341.333333h170.666666c17.066667 0 28.444444 11.377778 28.444445 28.444445S358.4 398.222222 341.333333 398.222222H170.666667z m0 170.666667c-17.066667 0-28.444444-11.377778-28.444445-28.444445S153.6 512 170.666667 512h113.777777c17.066667 0 28.444444 11.377778 28.444445 28.444444s-11.377778 28.444444-28.444445 28.444445H170.666667z m512 398.222222c159.288889 0 284.444444-125.155556 284.444444-284.444444s-125.155556-284.444444-284.444444-284.444445-284.444444 125.155556-284.444445 284.444445 125.155556 284.444444 284.444445 284.444444z m0 56.888889c-187.733333 0-341.333333-153.6-341.333334-341.333333s153.6-341.333333 341.333334-341.333334 341.333333 153.6 341.333333 341.333334-153.6 341.333333-341.333333 341.333333z m17.066666-540.444444c34.133333 0 62.577778 11.377778 85.333334 28.444444 22.755556 17.066667 34.133333 45.511111 34.133333 79.644444 0 22.755556-5.688889 45.511111-22.755556 68.266667-5.688889 5.688889-22.755556 22.755556-45.511111 39.822222-11.377778 11.377778-17.066667 17.066667-22.755555 28.444445-5.688889 11.377778-11.377778 22.755556-11.377778 34.133333v11.377778l-5.688889 5.688889h-45.511111l-5.688889-5.688889v-11.377778c0-17.066667 5.688889-34.133333 11.377778-51.2 5.688889-17.066667 28.444444-39.822222 56.888889-62.577778l17.066666-17.066666c11.377778-11.377778 17.066667-22.755556 17.066667-39.822223 0-17.066667-5.688889-34.133333-17.066667-45.511111-11.377778-11.377778-28.444444-17.066667-45.511111-17.066666-22.755556 0-45.511111 5.688889-56.888889 22.755555-11.377778 11.377778-17.066667 34.133333-17.066666 56.888889l-5.688889 5.688889H568.888889c0-39.822222 11.377778-73.955556 34.133333-96.711111 22.755556-22.755556 56.888889-34.133333 96.711111-34.133333z m-11.377777 341.333333c11.377778 0 17.066667 5.688889 22.755555 11.377778 5.688889 5.688889 11.377778 11.377778 11.377778 22.755555s-5.688889 17.066667-11.377778 22.755556c-5.688889 5.688889-11.377778 11.377778-22.755555 11.377778-5.688889 0-17.066667-5.688889-22.755556-11.377778-5.688889-5.688889-11.377778-11.377778-11.377778-22.755556s5.688889-17.066667 11.377778-22.755555c11.377778-11.377778 17.066667-11.377778 22.755556-11.377778z" fill="#999999" p-id="8328"></path></svg>