<?xml version="1.0" standalone="no"?><!DOCTYPE svg PUBLIC "-//W3C//DTD SVG 1.1//EN" "http://www.w3.org/Graphics/SVG/1.1/DTD/svg11.dtd"><svg t="1751856458770" class="icon" viewBox="0 0 1024 1024" version="1.1" xmlns="http://www.w3.org/2000/svg" p-id="5475" xmlns:xlink="http://www.w3.org/1999/xlink" width="64" height="64"><path d="M944.6 860.6l-46.2-111.2c10-15 15.4-32.6 15.4-50.6 0-50.4-41.2-91.4-92-91.4-50.6 0-92 41-92 91.4 0 19.2 6 37 16.2 51.8l-45.8 110c-1.4 3.6-0.8 7.6 1.8 10.6 2.6 2.8 6.6 3.8 10.4 2.6l37.4-11.8 19.2 35.4c1.8 3.2 5 5.2 8.8 5.2h0.4c3.8-0.2 7.2-2.6 8.6-6l35.4-84.6 35.4 84.6c1.4 3.6 4.8 5.8 8.6 6h0.4c3.6 0 7-2 8.8-5.2l19.2-35.4 37.4 11.8c3.8 1.2 7.8 0.2 10.4-2.8 3-2.8 3.6-6.8 2.2-10.4z m-168 9l-13.2-24.2c-2.2-4.2-7.2-6.2-11.8-4.8l-24.8 8 34-81.4c13.8 12.4 31.2 20.2 49.6 22.4l-33.8 80z m45.2-105.8c-36 0-65.4-29.2-65.4-65 0-36 29.4-65 65.4-65 36 0 65.4 29.2 65.4 65s-29.4 65-65.4 65z m71.4 76.8c-4.6-1.4-9.6 0.6-11.8 4.8l-13.2 24.2-33.6-80.2c18.4-2.6 35.6-10.6 49.2-23.2l34.2 82.2-24.8-7.8z" p-id="5476" fill="#3655b3"></path><path d="M629.2 889.4s0-0.2-0.2-0.2c-43 8.2-92.4 13-142.8 13h-3 0.2c-194.6 0-344.4-65.8-344.4-146.8 0-2.8-0.2-6.2 0-9.2V676c63.4 62 189.4 100.8 344.4 100.8h1.2c41.2 0 81.8-3.2 121.4-9.2v-0.4c7.2-1.4 12.8-11.4 12.8-23.6 0-13.2-6.4-23.8-14.4-23.8-0.6 0-1.2 0-2 0.2-36.6 5.8-74.2 8.6-117.2 8.6h-1.6c-194.4 0-344.2-60.4-344.2-141.6v-87.2c63.4 62 189.4 100.8 344.4 100.8s280.6-38.6 344-100.6v36.8c-0.2 0.6-0.2 1.2-0.2 1.8 0 8 10.6 14.4 23.6 14.4 12.6 0 22.8-6 23.4-13.6v-0.4-0.4V186c-29.6-88.6-196.2-156.6-391.4-156.6S121.8 97.4 92.2 186.2v606.6c29.6 88.6 190.4 161.6 391.4 159.4 58.2-0.6 108.8-6.2 158.2-17 0.8 0 1.8-0.2 2.6-0.4 0.2 0 0.4-0.2 0.6-0.2 0.4 0 0.8-0.2 1.4-0.2l-0.2-0.2c6.2-3.6 8.2-14.8 4.2-26.4-4.2-12.8-13.6-20.8-21.2-18.4zM483.6 76.6c194.6 0 344.4 57.8 344.4 139 0 81-149.8 142.8-344.4 142.8-194.4 0-344.4-61.8-344.4-142.8 0-81.2 149.8-139 344.4-139zM139.2 402v-97.6c63.4 62 189.4 100.8 344.4 100.8s281-36.2 344.4-98.2V402c0 1.4 0.2 3 0.2 4.6 0 1.6 0 3.2-0.2 4.8 0 80.8-149.8 142.6-344.4 142.6S139.2 492.2 139.2 411.2c0-1.4-0.2-3-0.2-4.6 0-1.6 0-3.2 0.2-4.8v0.2z" p-id="5477" fill="#3655b3"></path></svg>