<svg t="1751859305330" class="icon" viewBox="0 0 1024 1024" version="1.1" xmlns="http://www.w3.org/2000/svg" p-id="7249" xmlns:xlink="http://www.w3.org/1999/xlink" width="64" height="64"><path d="M960.7 340.8c-20.4-26.8-51.3-42.1-84.9-42.1h-15.4v-26.9c0-58.8-47.9-106.7-106.7-106.7H424.2c-4.8 0-9.6-1.7-13.4-4.7l-64.3-51.6c-18.9-15.1-42.6-23.5-66.8-23.5h-109C111.8 85.3 64 133.2 64 192v597.3C64 848.1 111.8 896 170.7 896H769.1c47.7 0 90-32.1 102.8-78.1l106.7-384c9-32.4 2.5-66.4-17.9-93.1z m-790-170.1h109.1c4.8 0 9.6 1.7 13.4 4.7l64.3 51.6c18.9 15.1 42.6 23.5 66.8 23.5h329.5c11.8 0 21.3 9.6 21.3 21.3v26.9H297.5c-47.8 0-90 32.1-102.8 78.1l-45.4 163.6V192c0-11.8 9.6-21.3 21.4-21.3z m725.7 240.4L789.7 795c-2.6 9.2-11 15.6-20.6 15.6H190.9c-9.2 0-14.6-5.3-17-8.4-2.4-3.1-6-9.8-3.6-18.6l106.7-384c2.6-9.2 11-15.6 20.6-15.6h578.3c9.2 0 14.6 5.3 17 8.4 2.3 3.2 5.9 9.8 3.5 18.7z" fill="#3655b3" p-id="7250"></path></svg>