<?xml version="1.0" standalone="no"?><!DOCTYPE svg PUBLIC "-//W3C//DTD SVG 1.1//EN" "http://www.w3.org/Graphics/SVG/1.1/DTD/svg11.dtd"><svg t="1751856094804" class="icon" viewBox="0 0 1025 1024" version="1.1" xmlns="http://www.w3.org/2000/svg" p-id="2880" xmlns:xlink="http://www.w3.org/1999/xlink" width="64.0625" height="64"><path d="M845.603661 667.206321a185.532713 185.532713 0 0 0-88.484832 22.834795L646.512788 551.605169a225.493605 225.493605 0 0 0 44.242416-134.154424A223.352843 223.352843 0 0 0 647.939963 286.150671l32.111431-32.825018 5.708699-6.422286a128.445725 128.445725 0 0 0 64.222862 17.126096 131.300074 131.300074 0 1 0-130.586487-132.013661 128.445725 128.445725 0 0 0 17.126097 64.222862 24.26197 24.26197 0 0 0-6.422286 5.708699l-32.825019 32.111431a223.352843 223.352843 0 0 0-132.727248-42.815241 227.634367 227.634367 0 0 0-158.416394 64.936449l-59.941338-60.654925a127.732137 127.732137 0 0 0 16.412509-63.509275 131.300074 131.300074 0 1 0-130.586486 130.586487 127.732137 127.732137 0 0 0 63.509275-16.41251l71.358735 67.790799a229.775129 229.775129 0 0 0-24.26197 103.470167 223.352843 223.352843 0 0 0 73.499498 169.833792L262.602789 642.944351a172.688141 172.688141 0 0 0-83.489721-23.548383 178.39684 178.39684 0 1 0 178.39684 178.396839 175.54249 175.54249 0 0 0-39.247305-112.033215l59.941338-59.941338A214.076208 214.076208 0 0 0 464.548012 642.944351a221.925668 221.925668 0 0 0 130.586486-41.388067l108.465279 135.581598a178.39684 178.39684 0 1 0 142.717471-71.358736zM749.982955 72.074464a60.654925 60.654925 0 0 1 59.941338 59.941338 59.941338 59.941338 0 0 1-59.941338 59.227751 59.227751 59.227751 0 0 1-59.227751-59.227751 59.941338 59.941338 0 0 1 59.227751-59.941338zM132.016303 191.243553A59.941338 59.941338 0 0 1 72.074965 132.015802 60.654925 60.654925 0 0 1 132.016303 72.074464a59.941338 59.941338 0 0 1 59.22775 59.941338 59.227751 59.227751 0 0 1-59.22775 59.227751z m47.096765 713.587358a107.038104 107.038104 0 1 1 107.038104-107.038104 107.038104 107.038104 0 0 1-107.038104 107.038104zM464.548012 571.585615a154.848457 154.848457 0 1 1 154.848456-154.13487A154.134869 154.134869 0 0 1 464.548012 571.585615z m381.055649 381.055649a107.038104 107.038104 0 1 1 107.038104-107.038104 107.038104 107.038104 0 0 1-107.038104 107.038104z" fill="#3655b3" p-id="2881"></path></svg>