<?xml version="1.0" standalone="no"?><!DOCTYPE svg PUBLIC "-//W3C//DTD SVG 1.1//EN" "http://www.w3.org/Graphics/SVG/1.1/DTD/svg11.dtd"><svg t="1751857179306" class="icon" viewBox="0 0 1024 1024" version="1.1" xmlns="http://www.w3.org/2000/svg" p-id="16563" xmlns:xlink="http://www.w3.org/1999/xlink" width="64" height="64"><path d="M253.838222 105.528889a1144.433778 1144.433778 0 0 1 197.916445-16.099556c71.338667 0 137.272889 5.575111 197.973333 16.099556 60.757333 10.695111 108.771556 25.315556 143.928889 43.804444 35.271111 18.432 52.963556 38.286222 52.963555 59.960889v59.904c0 21.504-17.635556 41.415111-52.906666 59.904-35.328 18.375111-83.342222 32.938667-143.928889 43.804445-60.643556 10.581333-126.691556 15.928889-198.030222 15.928889s-137.272889-5.575111-197.973334-16.156445c-60.757333-10.752-108.657778-25.372444-143.928889-43.918222C74.410667 310.272 56.888889 290.417778 56.888889 268.743111V208.839111c0-21.504 17.635556-41.415111 52.906667-59.904 35.441778-18.090667 83.342222-32.597333 144.042666-43.406222z" fill="#3655b3" p-id="16564"></path><path d="M224.142222 428.032c70.542222 13.425778 146.602667 20.195556 227.726222 20.195556 81.123556 0 157.184-6.656 227.669334-20.195556 70.542222-13.368889 126.350222-33.109333 167.196444-59.392v79.644444c0 21.504-17.635556 41.358222-52.906666 59.733334-35.328 18.432-83.342222 32.995556-143.928889 43.804444a1142.897778 1142.897778 0 0 1-197.916445 16.042667c-71.338667 0-137.272889-5.575111-197.973333-16.099556-60.871111-10.808889-108.885333-25.429333-144.213333-43.804444C74.524444 489.528889 56.888889 469.674667 56.888889 448.113778V368.64c40.846222 26.396444 96.654222 46.136889 167.253333 59.392z m-114.346666 259.640889c35.328 18.432 83.342222 32.995556 143.928888 43.804444a1144.604444 1144.604444 0 0 0 198.030223 16.099556c11.150222 0 22.300444-0.113778 33.223111-0.398222v-119.864889c-10.922667 0.227556-22.072889 0.455111-33.223111 0.455111-81.237333 0-157.184-6.712889-227.669334-20.195556-70.542222-13.368889-126.350222-33.109333-167.196444-59.392v79.473778c0 21.617778 17.635556 41.528889 52.906667 60.017778z m375.296 119.125333c-10.922667 0.170667-22.072889 0.398222-33.223112 0.398222-81.237333 0-157.184-6.712889-227.669333-20.195555C153.543111 773.688889 97.735111 753.891556 56.888889 727.608889v79.473778c0 21.560889 17.635556 41.415111 52.906667 59.790222 35.271111 18.432 83.342222 33.052444 143.928888 43.804444 60.643556 10.695111 126.691556 16.099556 198.030223 16.099556 11.150222 0 22.300444-0.056889 33.223111-0.398222v-119.580445h0.113778zM959.601778 738.019556c4.152889 4.437333 3.982222 11.377778-0.341334 15.644444l-161.450666 161.507556a11.377778 11.377778 0 0 1-19.399111-8.078223v-106.382222H546.474667a11.377778 11.377778 0 0 1-11.377778-11.377778v-86.698666a11.377778 11.377778 0 0 1 11.377778-11.377778h231.936v-106.382222c0-10.126222 12.288-15.246222 19.512889-8.135111 48.64 47.672889 104.96 100.124444 161.678222 161.28z" fill="#3655b3" p-id="16565"></path></svg>