<?xml version="1.0" standalone="no"?><!DOCTYPE svg PUBLIC "-//W3C//DTD SVG 1.1//EN" "http://www.w3.org/Graphics/SVG/1.1/DTD/svg11.dtd"><svg t="1751856614963" class="icon" viewBox="0 0 1024 1024" version="1.1" xmlns="http://www.w3.org/2000/svg" p-id="6821" xmlns:xlink="http://www.w3.org/1999/xlink" width="64" height="64"><path d="M591.872 849.92c-21.504 1.536-45.056 2.56-70.656 2.56-241.152 0-289.28-84.992-289.28-84.992v-89.088c61.952 36.864 168.448 60.928 289.28 60.928h13.824c-1.024-8.192-1.536-16.384-1.536-25.088 0-9.216 0.512-18.432 2.048-27.136h-14.336c-159.744 0-289.28-36.864-289.28-81.92V510.976c61.952 36.864 168.448 60.928 289.28 60.928 28.672 0 56.32-1.536 82.944-4.096 32.256-25.6 72.704-40.96 116.736-40.96 15.36 0 30.208 2.048 44.544 5.632 16.896-6.656 32.256-13.824 45.056-21.504v38.912c15.872 8.704 30.72 19.968 43.52 33.28V233.984C829.44 171.008 687.616 122.88 521.216 122.88s-308.224 48.128-332.288 111.104l-0.512 532.48c0 5.632 2.56 14.336 5.12 19.456 0 0 50.176 114.688 327.68 114.688 52.224 0 96.256-4.096 133.632-10.752-23.04-8.704-44.544-22.528-62.976-39.936zM521.728 167.936c159.744 0 289.28 36.864 289.28 81.92s-129.536 81.92-289.28 81.92-289.28-36.864-289.28-81.92 129.024-81.92 289.28-81.92zM232.448 325.632c61.952 36.864 168.448 60.928 289.28 60.928s227.328-24.064 289.28-60.928v112.64c0 45.056-129.536 81.92-289.28 81.92s-289.28-36.864-289.28-81.92v-112.64z" fill="#333333" p-id="6822"></path><path d="M536.576 714.752c0 103.424 83.968 187.392 187.392 187.392 103.424 0 187.392-83.968 187.392-187.392S826.88 527.36 723.456 527.36c-102.912 0-186.88 83.968-186.88 187.392z m345.6 0c0 87.552-71.168 158.208-158.208 158.208-87.552 0-158.208-71.168-158.208-158.208 0-87.552 71.168-158.208 158.208-158.208 87.04-0.512 158.208 70.656 158.208 158.208z m81.92 219.648c5.632 5.632 5.632 14.848 0 20.48-2.56 2.56-6.144 4.096-10.24 4.096s-7.68-1.536-10.24-4.096l-80.384-78.336-19.968 20.48 80.384 77.824c8.192 8.192 18.944 12.288 30.208 12.288 11.776 0 22.528-4.608 30.72-12.8 8.192-8.192 12.8-19.456 12.8-30.72s-4.096-22.016-12.8-30.72l-77.824-80.384-20.48 19.968 77.824 81.92z m-322.048-301.056l20.48 20.48c33.792-33.792 88.576-33.792 122.368 0l20.48-20.48c-45.056-45.056-118.272-45.056-163.328 0z" fill="#333333" p-id="6823"></path></svg>