<?xml version="1.0" standalone="no"?><!DOCTYPE svg PUBLIC "-//W3C//DTD SVG 1.1//EN" "http://www.w3.org/Graphics/SVG/1.1/DTD/svg11.dtd"><svg t="1751857041248" class="icon" viewBox="0 0 1243 1024" version="1.1" xmlns="http://www.w3.org/2000/svg" p-id="15229" xmlns:xlink="http://www.w3.org/1999/xlink" width="77.6875" height="64"><path d="M387.657143 11.410286c20.626286 0 40.009143 10.020571 52.004571 26.843428l76.068572 106.349715a64.365714 64.365714 0 0 0 52.077714 26.843428h364.763429c70.729143 0 128 57.270857 128 128v208.676572a290.450286 290.450286 0 0 0-64-17.700572V299.446857a64.073143 64.073143 0 0 0-64-64H116.589714a16.091429 16.091429 0 0 0-16.018285 16.018286v559.981714c0 35.254857 28.672 64 64 64h509.805714c7.899429 22.674286 18.505143 44.178286 31.451428 63.926857h-541.257142a128 128 0 0 1-128-128V75.483429C36.571429 40.228571 65.243429 11.410286 100.571429 11.410286z m-8.265143 64H116.589714a16.091429 16.091429 0 0 0-16.018285 16.018285v64c0 8.777143 7.168 16.018286 16.018285 16.018286h339.602286l-63.853714-89.307428a15.945143 15.945143 0 0 0-12.946286-6.729143z" fill="#3655b3" p-id="15230"></path><path d="M981.796571 573.878857a225.060571 225.060571 0 1 1 0 450.121143 225.060571 225.060571 0 0 1 0-450.121143z m0 50.029714a175.030857 175.030857 0 1 0 0 350.061715 175.030857 175.030857 0 0 0 0-350.061715z" fill="#3655b3" p-id="15231"></path><path d="M1116.818286 801.28c0-2.340571 0.146286-7.094857-2.56-9.508571 0-2.413714-2.56-4.754286-5.266286-7.314286l-74.459429-67.510857a28.745143 28.745143 0 0 0-37.814857-0.731429c-10.971429 9.362286-11.190857 23.552-0.512 33.206857l29.257143 26.624-151.259428-2.633143c-16.164571-0.292571-27.136 8.923429-27.428572 23.186286-0.219429 14.189714 10.386286 23.844571 26.624 24.137143l151.186286 2.633143-30.134857 25.6c-10.971429 9.216-11.264 23.405714-0.585143 33.133714a28.745143 28.745143 0 0 0 37.814857 0.658286l76.8-65.097143c2.706286-2.194286 5.412571-4.534857 5.485714-6.948571 2.706286-2.267429 2.779429-7.094857 2.852572-9.435429z" fill="#3655b3" p-id="15232"></path></svg>